HIERARCHY
ROOT pelvis
{
  OFFSET 0 100 0
  CHANNELS 6 Xposition Yposition Zposition Zrotation Xrotation Yrotation
  JOINT pelvis_right_femur
  {
    OFFSET -10.78128 -3.44521 -0.5502486
    CHANNELS 3 Zrotation Xrotation Yrotation
    JOINT right_femur_tibia
    {
      OFFSET -0.8047443 -44.0398 -0.1307829
      CHANNELS 3 Zrotation Xrotation Yrotation
      JOINT right_tibia_foot
      {
        OFFSET 3.006224 -47.83518 -5
        CHANNELS 3 Zrotation Xrotation Yrotation
        End Site
        {
          OFFSET 0 -5 15
        }
      }
    }
  }
  JOINT pelvis_left_femur
  {
    OFFSET 10.78128 -3.44521 -0.5502486
    CHANNELS 3 Zrotation Xrotation Yrotation
    JOINT left_femur_tibia
    {
      OFFSET 0.8047443 -44.0398 -0.1307829
      CHANNELS 3 Zrotation Xrotation Yrotation
      JOINT left_tibia_foot
      {
        OFFSET -4.370144 -48.10324 -4.275266
        CHANNELS 3 Zrotation Xrotation Yrotation
        End Site
        {
          OFFSET 0 -5 15
        }
      }
    }
  }
  JOINT pelvis_spine1
  {
    OFFSET 0 6.468898 -3.129235
    CHANNELS 3 Zrotation Xrotation Yrotation
    JOINT spine1
    {
      OFFSET 0 23.15396 4.99043
      CHANNELS 3 Zrotation Xrotation Yrotation
      JOINT spine2
      {
        OFFSET 0 20.79997 -5.064912
        CHANNELS 3 Zrotation Xrotation Yrotation
        JOINT neck
        {
          OFFSET 0 14.38658 9.616178
          CHANNELS 3 Zrotation Xrotation Yrotation
          End Site
          {
            OFFSET 0 20 0
          }
        }
      }
      JOINT right_manubrium
      {
        OFFSET -5.722621 16.35077 3.967754
        CHANNELS 3 Zrotation Xrotation Yrotation
        JOINT right_clavicle
        {
          OFFSET -13.16364 1.694482 -4.693211
          CHANNELS 3 Zrotation Xrotation Yrotation
          JOINT right_humerus
          {
            OFFSET -28.5034 -0.3100689 -2.792744
            CHANNELS 3 Zrotation Xrotation Yrotation
            JOINT right_radius
            {
              OFFSET -25.15693 0.02248979 -1.271978
              CHANNELS 3 Zrotation Xrotation Yrotation
              End Site
              {
                OFFSET -15 0 0
              }
            }
          }
        }
      }
      JOINT left_manubrium
      {
        OFFSET 5.722621 16.35077 3.967754
        CHANNELS 3 Zrotation Xrotation Yrotation
        JOINT left_clavicle
        {
          OFFSET 13.16364 1.694482 -4.693211
          CHANNELS 3 Zrotation Xrotation Yrotation
          JOINT left_humerus
          {
            OFFSET 29.39168 -1.063119 -2.237045
            CHANNELS 3 Zrotation Xrotation Yrotation
            JOINT left_radius
            {
              OFFSET 24.59957 -0.9528479 0.9047498
              CHANNELS 3 Zrotation Xrotation Yrotation
              End Site
              {
                OFFSET 15 -0 -0
              }
            }
          }
        }
      }
    }
  }
}
MOTION
Frames: 23
Frame Time: 0.0416666666667
27.46626 101.7895 261.0819 1.201072 -7.415346 1.496615 2.634254 15.77772 8.773409 -0 19.38039 -0 7.874792 -16.51362 -1.786663 2.35261 -25.88347 -0.2439128 -0 23.78058 -0 -5.871369 -8.293005 19.58008 0.3698213 2.53196 8.763395 -1.820568 11.32088 -1.854059 1.358285 18.4772 4.449189 0.16582 -15.13156 6.461163 0.1863471 -23.16795 13.38413 81.73614 16.92776 -7.302366 -0 0 24.60008 -21.28247 5.511593 12.81784 4.453386 -17.09678 -2.085385 -90.65189 18.5778 25.23985 0 0 -16.2745 -0.8872168 4.876065 12.90602
28.66243 100.9262 268.4047 1.160342 -7.22155 1.138524 2.408659 16.59332 8.732894 -0 23.76785 -0 9.206238 -14.30061 -2.029964 0.1528521 -24.08631 -2.187599 -0 23.85348 -0 -5.972963 -8.454477 18.59256 0.07117137 1.894763 8.77091 -1.886483 10.84433 -2.100242 1.464057 18.72616 4.390377 -0.002154898 -15.10944 6.673212 0.009966923 -23.47468 12.63668 81.51242 16.30791 -6.509428 -0 0 26.10236 -21.64533 5.400622 13.22195 4.238043 -16.35366 -2.057687 -90.90508 18.89549 25.70773 0 0 -15.01306 -1.225592 4.837719 13.89268
30.23549 100.22 276.1585 1.735566 -7.632717 1.020753 1.127816 17.97027 8.605729 -0 29.83931 -0 10.57722 -10.55482 -2.628217 -1.397278 -23.50458 -3.71134 -0 23.90509 -0 -6.130305 -8.566112 17.65531 -0.5577876 1.129748 8.850249 -2.016965 10.83008 -2.278352 1.726834 18.95246 4.297915 -0.04224929 -14.98189 6.926923 -0.1636595 -23.14795 11.78126 81.77584 15.84955 -6.548915 -0 0 26.79778 -21.89276 5.333935 13.44821 4.099601 -15.1142 -1.881793 -91.16778 19.21728 26.24088 0 0 -13.65558 -1.588316 4.783972 14.84072
31.72673 100.2916 283.9742 2.651499 -7.612928 1.367976 -0.1583312 17.86846 8.052346 -0 37.20997 -0 11.84193 -5.890817 -3.709457 -3.079262 -20.51163 -5.11985 -0 25.33131 -0 -6.172346 -9.24587 16.75688 -1.520953 0.03540446 8.688537 -2.246795 10.63621 -2.554701 1.933471 19.3185 4.243511 -0.09295818 -14.74899 7.181697 -0.1098316 -22.41679 11.05035 82.37979 15.60782 -7.180132 -0 0 26.5811 -22.01742 5.353747 13.45125 4.06226 -14.50089 -1.784502 -90.8592 19.65497 25.80356 0 0 -13.02068 -1.800674 4.84003 15.41084
33.04169 101.076 291.0107 3.179089 -7.796972 2.193256 -1.007836 15.77178 6.986899 -0 44.96742 -0 12.59509 -3.398544 -4.864548 -4.511423 -16.52502 -6.066784 -0 25.94977 -0 -5.920714 -10.75428 15.94304 -2.022017 -0.2932595 8.056906 -2.347319 10.44622 -2.896859 1.877956 19.79846 4.325026 -0.304614 -14.49756 7.433715 0.359938 -21.47311 10.74059 83.28895 15.63291 -8.227339 -0 0 25.41974 -21.82537 5.44637 13.1235 4.010101 -14.92673 -1.891063 -89.80332 20.2278 24.02716 0 0 -13.27089 -1.812968 5.018428 15.53995
34.24463 102.3309 297.5023 3.549195 -8.593666 3.162551 -1.282902 11.43722 5.665101 -0 52.19209 -0 12.43627 -3.197004 -6.326432 -5.354898 -11.48906 -6.692607 -0 25.69446 -0 -5.721287 -12.23507 15.21532 -2.25099 0.03983022 7.184313 -2.476416 10.64648 -3.118276 1.771526 20.37714 4.452925 -0.5662161 -14.23435 7.725084 1.002066 -20.62496 10.72356 84.16968 15.86694 -9.311954 -0 0 23.74188 -21.36652 5.602562 12.58277 3.827458 -15.38157 -2.145424 -88.56299 20.82125 22.12131 0 0 -13.34992 -1.806052 5.165569 15.62555
35.35463 104.0913 303.929 3.235247 -9.72779 4.33077 -1.124184 4.599978 4.303374 -0 56.63102 -0 11.52984 -5.379298 -7.396076 -5.40251 -5.474283 -6.898645 -0 24.3077 -0 -5.685831 -13.34858 14.60914 -1.906323 0.5511265 5.77039 -2.135881 10.81541 -3.771776 1.544256 21.08651 4.690272 -0.900336 -13.97469 8.077421 1.680916 -19.6281 10.69971 85.22392 16.1698 -10.70568 -0 0 21.83126 -20.71508 5.771133 11.94269 3.664624 -16.18052 -2.596229 -87.28326 21.39092 19.46395 0 0 -14.00143 -1.729242 5.392529 15.4421
36.37133 105.4028 309.5918 2.887006 -9.877386 5.554155 -0.6541449 -2.095505 3.001186 -0 56.0875 -0 10.32867 -6.812183 -8.098046 -5.221573 0.1102395 -6.912203 -0 21.4397 -0 -5.724523 -14.38373 13.95976 -1.649104 0.8769727 4.303166 -1.614139 10.50807 -4.759484 1.368171 21.60997 4.905798 -1.195019 -13.76385 8.424676 1.842278 -18.7604 10.58933 86.04665 16.44493 -12.05407 -0 0 20.15176 -20.15254 5.894629 11.41496 3.844112 -17.08752 -3.205457 -86.07989 21.94428 16.29723 0 0 -15.17434 -1.616697 5.682509 14.9934
37.3928 106.2 315.1449 2.804599 -9.743645 6.879532 -0.5737941 -7.864283 2.122465 -0 51.22427 -0 8.821527 -7.629676 -8.688623 -4.999014 4.564487 -7.281602 -0 18.83967 -0 -5.796711 -15.31032 13.169 -1.669036 1.160221 3.111776 -0.9566221 10.13935 -5.839108 1.374828 21.96608 4.959954 -1.366006 -13.61271 8.681483 1.67004 -17.81459 10.31353 86.62018 16.62923 -13.53092 -0 0 18.49325 -19.74885 5.938879 10.93985 4.296135 -17.93435 -3.716074 -85.00709 22.45223 13.01554 0 0 -16.75197 -1.458642 6.035069 14.25653
38.27601 106.0471 320.7925 2.9676 -9.009578 8.93874 -1.122815 -13.74225 1.53769 -0 43.9466 -0 7.319821 -7.971116 -9.59577 -4.935749 9.296739 -7.221783 -0 16.18008 -0 -5.706437 -16.63913 12.25243 -2.222894 1.335196 1.839697 -0.2410093 9.536769 -7.25127 1.661573 22.1386 4.734901 -1.345439 -13.53074 8.764892 1.313625 -16.83879 9.94658 87.03513 16.74056 -14.99827 -0 0 16.78548 -19.4993 5.909529 10.46774 5.100165 -19.06752 -4.264297 -83.62435 22.94283 9.49144 0 0 -18.63157 -1.192074 6.511826 13.26817
39.14866 105.0876 326.4929 3.411485 -8.333807 10.58081 -2.247378 -18.39644 0.9026585 -0 35.17728 -0 5.739491 -8.316451 -10.61394 -4.756119 13.06221 -7.461245 -0 14.11725 -0 -5.628524 -18.28769 11.21637 -2.837901 1.37033 1.215609 0.3018059 8.648235 -7.990534 2.289592 21.84686 4.499324 -1.175414 -13.99391 9.092574 0.9423125 -15.31464 9.852198 87.62262 16.79573 -16.72281 -0 0 14.55126 -19.19118 5.833611 9.774832 5.788906 -20.36161 -4.635124 -82.29998 23.33531 6.113855 0 0 -20.57038 -0.821622 7.08848 12.14767
39.89161 103.6392 332.4286 4.003534 -8.006294 12.24387 -3.828283 -22.46923 0.5025025 -0 27.29856 -0 4.036432 -9.235983 -11.53647 -4.639648 16.75665 -7.511212 -0 13.54508 -0 -5.602122 -19.81378 10.45885 -3.370895 1.498728 0.8232242 0.6711943 8.133166 -8.295622 2.781823 21.81517 4.175579 -1.018448 -14.33967 9.174242 0.8012585 -13.95319 9.780331 88.24384 16.89485 -18.29088 -0 0 12.04369 -18.84309 5.777834 8.989934 6.398484 -21.66847 -4.558075 -80.97861 23.61446 2.88197 0 0 -22.3323 -0.368758 7.707368 10.99375
40.49579 102.4066 338.1041 4.220057 -7.60477 12.10874 -3.846261 -25.09422 -1.034078 -0 21.1743 -0 2.42555 -10.13416 -12.6959 -4.686727 19.52547 -7.417745 -0 14.34601 -0 -5.762038 -20.66971 10.1584 -3.598131 1.775245 1.002091 0.9411076 7.758879 -7.848387 3.052115 21.79686 3.859777 -0.9570311 -14.78946 9.06771 1.077973 -13.02354 10.11179 88.82507 17.08956 -19.40362 -0 0 9.443643 -18.34358 5.794752 8.132355 6.758878 -22.51247 -4.261691 -79.8035 23.72718 0.1865871 0 0 -23.6612 0.1614577 8.30582 9.908303
41.04068 101.3045 344.4734 3.978802 -7.286821 11.86748 -3.019664 -25.81454 -1.811567 -0 18.59232 -0 0.9723712 -10.6214 -13.54888 -4.247351 21.74198 -7.440395 -0 16.79349 -0 -6.153624 -20.3317 10.20595 -3.37911 1.590609 1.057797 1.195927 7.547214 -7.335233 3.215369 21.82705 3.559876 -0.9201876 -15.25203 8.86285 1.427933 -12.18393 10.43645 89.42858 17.30592 -20.31049 -0 0 7.016696 -17.7538 5.876272 7.349425 6.986437 -22.90096 -3.739898 -79.31366 23.84805 -1.27171 0 0 -24.28307 0.6257422 8.839911 9.046051
41.36035 100.5744 351.4991 3.673916 -7.236585 12.29704 -0.8059041 -24.2704 -1.36595 -0 19.45623 -0 -0.0922794 -10.26273 -13.64569 -3.240612 23.13214 -7.788863 -0 21.42092 -0 -6.787857 -18.38592 10.73638 -3.040187 0.8272991 1.037703 1.245428 7.474028 -6.82712 3.394764 22.20463 3.15635 -0.8313287 -15.47091 8.518948 1.731617 -11.59603 10.61707 89.96269 17.49509 -20.79058 -0 0 5.282435 -17.20829 5.977805 6.844063 7.035023 -22.95595 -2.920643 -79.664 24.12509 -1.4832 0 0 -23.99336 0.8961366 9.2941 8.519867
41.72295 100.3986 358.966 3.054005 -7.680457 12.54171 1.304751 -21.46819 -0.4982457 -0 21.14579 -0 -1.059988 -9.969556 -13.39752 -2.178166 23.35189 -8.060294 -0 28.66131 -0 -7.556069 -14.75204 11.97377 -2.230599 0.1459435 0.7565902 1.412644 7.720053 -6.730117 3.476092 22.55411 2.787837 -0.766338 -15.72664 8.110317 1.914006 -10.97653 10.56749 90.47287 17.52578 -21.04796 -0 0 4.254811 -17.29964 5.877845 6.921276 6.973475 -22.26481 -2.22123 -80.70233 24.51305 -0.429298 0 0 -22.80216 0.9528029 9.681683 8.339028
42.2151 100.8574 366.3963 2.394747 -9.01798 12.00502 3.011505 -17.59436 0.277316 -0 22.79401 -0 -2.339144 -10.87171 -12.99543 -1.417101 21.54128 -7.991191 -0 38.16972 -0 -7.993338 -10.86531 14.2211 -1.303812 0.07983624 0.7686527 1.687925 8.106501 -6.587981 3.392931 22.94174 2.884541 -0.7825103 -16.08737 8.159401 2.014059 -10.89011 10.39736 90.25357 17.61124 -20.87002 -0 0 3.599605 -18.10042 5.534725 7.46596 6.495501 -21.302 -1.847391 -82.33149 25.00381 1.513511 0 0 -20.66301 0.7190059 10.00701 8.542076
42.57562 101.6526 373.3178 2.024525 -10.51792 11.35162 4.47964 -11.61369 0.7036719 -0 24.12311 -0 -3.58426 -12.43442 -12.51019 -1.594695 17.30079 -7.186693 -0 47.87586 -0 -7.532752 -8.269114 17.04335 -0.6694481 0.7314893 1.167549 2.129713 8.916856 -6.359405 3.271014 23.20979 2.978199 -0.7940307 -16.59273 8.148227 2.4314 -10.55789 10.46146 89.85728 17.60442 -20.70231 -0 0 2.813941 -19.55553 4.937314 8.384221 5.697652 -20.63709 -1.802273 -84.19187 25.49272 3.755185 0 0 -17.98693 0.2381635 10.27712 9.001078
42.96714 102.9675 379.9921 2.153664 -12.02596 10.65503 4.9539 -6.078154 0.9463226 -0 23.44889 -0 -4.515237 -13.80354 -11.6927 -1.500891 12.29904 -7.024112 -0 55.28153 -0 -6.713425 -6.401711 19.60668 -0.5792719 1.581 2.043764 2.141346 9.546783 -5.802136 3.47336 23.65848 2.832801 -0.6190404 -16.99798 8.096494 2.579012 -10.89273 10.77191 89.53015 17.50226 -19.53706 -0 0 3.180034 -20.88918 4.278446 9.514046 4.909491 -19.96441 -1.839786 -86.35332 25.93617 6.447975 0 0 -14.97155 -0.4300394 10.4965 9.640045
43.35254 104.5057 386.0471 2.850949 -12.76598 10.10629 4.621414 0.01686758 0.6160716 -0 20.94127 -0 -5.056753 -14.73869 -10.65623 -2.058372 5.626729 -6.269616 -0 57.80162 -0 -5.67792 -5.58679 21.30856 -0.9574184 2.472689 3.247156 1.859757 9.556276 -4.778733 3.69202 24.23005 2.637368 -0.4205379 -17.15368 7.983711 2.608682 -12.25877 11.56526 88.82092 17.60842 -17.19027 -0 0 4.129106 -21.70774 3.851985 9.659676 4.479696 -19.4272 -1.928695 -88.52795 26.18412 9.293052 0 0 -12.03728 -1.095629 10.63591 10.27894
43.73429 105.681 391.6262 3.231916 -12.52851 9.026446 4.163156 5.246351 0.1055255 -0 17.46422 -0 -5.427734 -15.41434 -9.2285 -2.667775 -0.3422555 -5.985527 -0 54.98736 -0 -4.801225 -5.122554 21.96454 -1.212643 2.733395 4.333319 1.31859 9.297008 -3.553284 3.697686 24.5827 2.599442 -0.3442169 -17.19486 7.890361 2.103179 -13.61029 12.19704 88.0208 17.72536 -14.76065 -0 0 5.301441 -22.39722 3.546088 9.718397 4.528753 -18.75739 -1.709974 -90.64039 26.13703 12.36955 0 0 -9.384206 -1.631428 10.69413 10.76197
44.12156 106.2965 396.9796 3.186857 -11.96283 7.356322 3.750268 9.823688 -0.8249613 -0 13.90328 -0 -5.788643 -16.07319 -7.528147 -2.675364 -6.187971 -5.919392 -0 47.51256 -0 -3.779164 -5.448952 22.5426 -1.347411 2.844064 5.104826 0.7649302 9.277919 -2.525743 3.503423 24.61279 2.834675 -0.363714 -17.33114 7.960305 1.20894 -14.27194 12.36131 87.67013 17.73142 -12.9908 -0 0 6.12829 -22.89973 3.373054 9.597742 4.91044 -18.09722 -1.296419 -92.43729 25.81871 15.33462 0 0 -7.116771 -1.93928 10.69449 11.04601
44.57964 106.0795 402.3893 2.88785 -11.31905 5.97241 3.583174 13.97675 -2.233752 -0 11.00437 -0 -6.264543 -16.88697 -5.672945 -1.572778 -11.40473 -4.971154 -0 36.98983 -0 -3.091459 -6.313061 23.82532 -1.404828 2.643264 5.387956 0.407339 8.823028 -1.981613 3.092169 24.72117 3.35131 -0.4544955 -17.33914 8.177924 0.2158326 -16.1569 12.01627 86.5994 17.91246 -10.2382 -0 0 8.65106 -23.98535 3.211867 10.70523 5.424971 -17.14068 -0.7529729 -94.04234 25.29714 18.32295 0 0 -5.018114 -2.019421 10.64626 11.18384
